# xmcd
#
# Track frame offsets: 
#        150
#        7564
#        22161
#        47592
#        51154
#        68165
#        71035
#        77722
#        93198
#        127839
#
# Disc length: 1799 seconds
#
# Revision: 0
# Processed by: cddbd v1.4PL0 Copyright (c) Steve Scherf et al.
# Submitted via: ExactAudioCopy v0.90b3
#
DISCID=7407050a
DTITLE=Jeff Foxworthy - The Redneck Test
DYEAR=1900
DGENRE=Comedy
TTITLE0=Redneck Or Not
TTITLE1=Single Life
TTITLE2=Bodacious Tatas
TTITLE3=Big Engagement Rings
TTITLE4=Cold Butted Woman
TTITLE5=Fragrances
TTITLE6=Trying To Be Sexy
TTITLE7=Rocket Lancher Body Sounds
TTITLE8=Bell Bottom Leisure Suits
TTITLE9=Money Fights
EXTD=
EXTT0=
EXTT1=
EXTT2=
EXTT3=
EXTT4=
EXTT5=
EXTT6=
EXTT7=
EXTT8=
EXTT9=
PLAYORDER=
